<svg width="160" height="160" viewBox="0 0 160 160" fill="none" xmlns="http://www.w3.org/2000/svg" role="img" aria-labelledby="title desc">
  <title id="title">Pour n Art resin heart mark</title>
  <desc id="desc">A boutique resin pour mark with a soft gold circle, flowing blue resin, heart line, and droplet.</desc>
  <defs>
    <radialGradient id="paperGlow" cx="0" cy="0" r="1" gradientUnits="userSpaceOnUse" gradientTransform="translate(56 42) rotate(52) scale(118)">
      <stop stop-color="#FFFFFF"/>
      <stop offset="0.54" stop-color="#FFF8EE"/>
      <stop offset="1" stop-color="#E4F4F4"/>
    </radialGradient>
    <linearGradient id="goldRing" x1="18" y1="19" x2="139" y2="139" gradientUnits="userSpaceOnUse">
      <stop stop-color="#FFE8AA"/>
      <stop offset="0.45" stop-color="#C99A3D"/>
      <stop offset="1" stop-color="#8A6427"/>
    </linearGradient>
    <linearGradient id="resinPour" x1="28" y1="62" x2="105" y2="130" gradientUnits="userSpaceOnUse">
      <stop stop-color="#F8FDFF"/>
      <stop offset="0.22" stop-color="#7AD9DF"/>
      <stop offset="0.52" stop-color="#1E6F8F"/>
      <stop offset="1" stop-color="#083B4F"/>
    </linearGradient>
    <filter id="softShadow" x="-20%" y="-20%" width="140%" height="140%" color-interpolation-filters="sRGB">
      <feDropShadow dx="0" dy="10" stdDeviation="10" flood-color="#10191C" flood-opacity="0.18"/>
    </filter>
  </defs>
  <circle cx="80" cy="80" r="75" fill="url(#paperGlow)"/>
  <circle cx="80" cy="80" r="70" stroke="url(#goldRing)" stroke-width="3"/>
  <path d="M130.5 31.5C100.5 22.5 61.8 26.7 39.7 52.4C23.8 70.8 27.8 100.5 49.6 111.4C62.7 117.9 78.6 116.1 91.2 108.3" stroke="#C99A3D" stroke-width="4.4" stroke-linecap="round"/>
  <path d="M123.6 51.4C121 38.9 108.6 35.5 100.3 43.7C92.4 51.5 89 58.7 79.7 68.3C72.8 58.7 68 51 59.3 43.8C50.1 36.2 38.6 41.8 37.1 53.3C34.6 73 62.8 84.9 81.3 108.1C99.7 84.9 128.1 72.9 123.6 51.4Z" stroke="#D6A24B" stroke-width="5.6" stroke-linecap="round" stroke-linejoin="round"/>
  <g filter="url(#softShadow)">
    <path d="M23.8 82.6C43.9 68.7 55.1 39.7 83.9 47.4C112.4 55.1 118.7 87.2 101.2 108.3C88.5 123.6 62.7 131.2 39.3 113.9C59.8 116.8 81.8 106.5 89.2 91.4C96.6 76.3 90.9 63.1 76.7 59.2C59.1 54.5 48.1 84.4 23.8 82.6Z" fill="url(#resinPour)"/>
    <path d="M32.6 80.7C49.5 74.1 62.1 64.2 78.4 68.2C93.6 72 100.3 88.1 93.7 102.3C85.8 119.5 60.1 123.9 42.1 113.8C59.8 114.6 81.9 102.3 87.5 89.8C92.6 78.4 85.5 70.1 74.6 69.7C60.4 69.2 49.8 86.1 32.6 80.7Z" fill="#FFF8EE" opacity="0.62"/>
    <path d="M44.6 90.4C59.2 93.1 72.7 86 88.3 89.3" stroke="#C99A3D" stroke-width="4.3" stroke-linecap="round" opacity="0.95"/>
    <path d="M87.3 106.4C87.3 106.4 96.1 116.8 96.1 124.4C96.1 130.4 92.3 134.1 87.3 134.1C82.3 134.1 78.5 130.4 78.5 124.4C78.5 116.8 87.3 106.4 87.3 106.4Z" fill="#7AD9DF" stroke="#0A4358" stroke-width="1.8"/>
  </g>
  <circle cx="37.5" cy="38.5" r="4.5" fill="#D7AD57"/>
  <circle cx="47.5" cy="30.5" r="2.4" fill="#F2DAA2"/>
  <circle cx="30.5" cy="51.5" r="2.2" fill="#C99A3D"/>
</svg>
