<svg width="720" height="260" viewBox="0 0 720 260" fill="none" xmlns="http://www.w3.org/2000/svg" role="img" aria-labelledby="title desc">
  <title id="title">Pour n Art heart pour logo concept</title>
  <desc id="desc">A boutique resin art logo with a pouring drop forming a heart beside the Pour n Art wordmark.</desc>
  <defs>
    <linearGradient id="resinBlue" x1="38" y1="32" x2="197" y2="202" gradientUnits="userSpaceOnUse">
      <stop stop-color="#EAF8FA"/>
      <stop offset="0.42" stop-color="#2F80ED"/>
      <stop offset="1" stop-color="#0F766E"/>
    </linearGradient>
    <linearGradient id="warmGold" x1="24" y1="32" x2="178" y2="225" gradientUnits="userSpaceOnUse">
      <stop stop-color="#FFF8EE"/>
      <stop offset="0.52" stop-color="#D7AD57"/>
      <stop offset="1" stop-color="#8A6427"/>
    </linearGradient>
    <filter id="softShadow" x="-20%" y="-20%" width="140%" height="140%" color-interpolation-filters="sRGB">
      <feDropShadow dx="0" dy="14" stdDeviation="16" flood-color="#10191C" flood-opacity="0.16"/>
    </filter>
  </defs>
  <rect width="720" height="260" rx="34" fill="#FFF8EE"/>
  <g filter="url(#softShadow)">
    <circle cx="128" cy="130" r="88" fill="#FFFFFF"/>
    <circle cx="128" cy="130" r="81" stroke="url(#warmGold)" stroke-width="3"/>
    <path d="M100.4 115.2C89.2 103.3 70.8 108.4 70.8 126.3C70.8 151.1 105.1 166 126.3 189.7C147.6 166 182.3 151.1 182.3 126.3C182.3 108.4 163.6 103.3 152.4 115.2C142.6 125.6 136.3 126.1 126.3 112.9C116.6 126.1 110.2 125.6 100.4 115.2Z" fill="url(#resinBlue)" opacity="0.94"/>
    <path d="M126 82C142 99 145 119 128 139" stroke="#8A6427" stroke-width="7" stroke-linecap="round"/>
    <path d="M123 66C123 66 139 83 139 96C139 106.5 132 112 123 112C114 112 107 106.5 107 96C107 83 123 66 123 66Z" fill="#D7AD57"/>
    <path d="M80 170C105 180 148 179 176 158" stroke="#FFF8EE" stroke-width="7" stroke-linecap="round" opacity="0.75"/>
    <circle cx="92" cy="92" r="4" fill="#D7AD57"/>
    <circle cx="166" cy="176" r="3.4" fill="#2F80ED" opacity="0.9"/>
  </g>
  <text x="248" y="116" fill="#10191C" font-family="Cormorant Garamond, Georgia, serif" font-size="62" font-weight="700" letter-spacing="0">Pour n Art</text>
  <path d="M252 137H503" stroke="#D7AD57" stroke-width="2.5" stroke-linecap="round"/>
  <text x="250" y="172" fill="#526166" font-family="Manrope, Arial, sans-serif" font-size="19" font-weight="700" letter-spacing="1.8">POUR AN HEART</text>
  <text x="250" y="202" fill="#8A6427" font-family="Manrope, Arial, sans-serif" font-size="15" font-weight="700">Handmade resin keepsakes, custom gifts, and artful pours</text>
</svg>
